<?xml version="1.0" encoding="iso-8859-1"?>
<!-- Uploaded to: SVG Repo, www.svgrepo.com, Generator: SVG Repo Mixer Tools -->
<!DOCTYPE svg PUBLIC "-//W3C//DTD SVG 1.1//EN" "http://www.w3.org/Graphics/SVG/1.1/DTD/svg11.dtd">
<svg height="800px" width="800px" version="1.1" id="Capa_1" xmlns="http://www.w3.org/2000/svg" xmlns:xlink="http://www.w3.org/1999/xlink" 
	 viewBox="0 0 297.5 297.5" xml:space="preserve">
<g id="XMLID_38_">
	<g>
		<path style="fill:#BCE6EC;" d="M260.705,29.71c3.38,0,6.12,2.74,6.12,6.11s-2.74,6.11-6.12,6.11c-3.37,0-6.11-2.74-6.11-6.11
			S257.335,29.71,260.705,29.71z"/>
		<path style="fill:#BCE6EC;" d="M58.485,93.47v23.79c0,1.11-0.9,2.01-2.01,2.01c-1.11,0-2.02-0.9-2.02-2.01V93.47
			c0-1.11,0.91-2.01,2.02-2.01C57.585,91.46,58.485,92.36,58.485,93.47z"/>
		<path style="fill:#BCE6EC;" d="M82.275,81.58c0,3.36-0.01,7.16-4.12,9.94c-0.99-11.1-10.34-19.82-21.68-19.82
			c-11.35,0-20.69,8.72-21.69,19.82c-4.11-2.78-4.11-6.58-4.11-9.94c0-8.61,3.84-22,9.33-32.56c6.54-12.57,12.96-17.03,16.47-17.03
			c3.5,0,9.92,4.46,16.46,17.03C78.435,59.58,82.275,72.97,82.275,81.58z"/>
		<path style="fill:#00C08D;" d="M250.825,111.43v166.06h-76.2V111.43c0-21.01,17.09-38.1,38.1-38.1S250.825,90.42,250.825,111.43z"
			/>
		<path d="M260.705,9.94c14.27,0,25.88,11.61,25.88,25.88s-11.61,25.87-25.88,25.87c-10.76,0-20.02-6.61-23.91-15.99h-14.19v8.73
			c27.21,4.7,47.99,28.46,47.99,57v175.94c0,5.46-4.43,9.88-9.89,9.88h-95.96c-5.46,0-9.88-4.42-9.88-9.88V111.43
			c0-28.54,20.77-52.3,47.98-57V45.7h-42.87c-9.56,0-17.34,7.78-17.34,17.34v153.48c0,20.46-16.65,37.11-37.1,37.11h-23.48
			c-20.46,0-37.1-16.65-37.1-37.11v-80.8c-6.16-3.85-10.26-10.68-10.26-18.46v-4.47c-3.01-0.85-5.71-1.92-8.14-3.23
			c-7.14-3.85-15.64-11.83-15.64-27.98c0-11.83,4.54-28.19,11.56-41.69c9.29-17.83,21.36-27.66,34-27.66
			c28.35,0,45.56,48.17,45.56,69.35c0,16.15-8.51,24.13-15.64,27.98c-2.43,1.31-5.13,2.38-8.15,3.23v4.47
			c0,9.09-5.6,16.89-13.53,20.15v79.11c0,9.57,7.78,17.35,17.34,17.35h23.48c9.56,0,17.34-7.78,17.34-17.35V63.04
			c0-20.46,16.64-37.1,37.1-37.1h42.87V10.13c0-5.46,4.42-9.88,9.88-9.88c5.46,0,9.88,4.42,9.88,9.88v15.81h14.19
			C240.685,16.56,249.945,9.94,260.705,9.94z M266.825,35.82c0-3.37-2.74-6.11-6.12-6.11c-3.37,0-6.11,2.74-6.11,6.11
			s2.74,6.11,6.11,6.11C264.085,41.93,266.825,39.19,266.825,35.82z M250.825,277.49V111.43c0-21.01-17.09-38.1-38.1-38.1
			s-38.1,17.09-38.1,38.1v166.06H250.825z M78.155,91.52c4.11-2.78,4.12-6.58,4.12-9.94c0-8.61-3.84-22-9.34-32.56
			c-6.54-12.57-12.96-17.03-16.46-17.03c-3.51,0-9.93,4.46-16.47,17.03c-5.49,10.56-9.33,23.95-9.33,32.56c0,3.36,0,7.16,4.11,9.94
			c1-11.1,10.34-19.82,21.69-19.82C67.815,71.7,77.165,80.42,78.155,91.52z M58.485,117.26V93.47c0-1.11-0.9-2.01-2.01-2.01
			c-1.11,0-2.02,0.9-2.02,2.01v23.79c0,1.11,0.91,2.01,2.02,2.01C57.585,119.27,58.485,118.37,58.485,117.26z"/>
	</g>
	<g>
	</g>
</g>
</svg>